<?xml version="1.0" encoding="utf-8"?>
<!-- Generator: Adobe Illustrator 21.1.0, SVG Export Plug-In . SVG Version: 6.00 Build 0)  -->
<svg version="1.1" id="圖層_1" xmlns="http://www.w3.org/2000/svg" xmlns:xlink="http://www.w3.org/1999/xlink" x="0px" y="0px"
	 viewBox="0 0 70 70" style="enable-background:new 0 0 70 70;" xml:space="preserve">
<g id="ic_x5F_time_sync">
	<path d="M37.8,18c4.5,0.4,8.7,2.6,11.6,6.1l-5.3-0.5c-0.9-0.1-1.8,0.6-1.8,1.5l0,0c-0.1,0.9,0.6,1.8,1.5,1.8l7,0.6
		c1.7,0.2,3.3-1.1,3.4-2.9l0.6-7c0.1-0.9-0.6-1.8-1.5-1.8l0,0c-0.9-0.1-1.8,0.6-1.8,1.5L51.1,21c-7.6-8.2-20.5-8.7-28.7-1.1
		c-3.2,3-5.4,6.9-6.2,11.3c-0.2,0.9,0.4,1.8,1.4,2c0.1,0,0.1,0,0.2,0l0,0c0.9,0.1,1.6-0.5,1.8-1.3C21.1,23.2,29,17.2,37.8,18z"/>
	<path d="M54.7,36.5c-0.9-0.1-1.6,0.5-1.8,1.3C51.3,47,42.5,53.2,33.3,51.5c-4-0.7-7.6-2.8-10.1-6l5.3,0.5c0.9,0.1,1.8-0.6,1.8-1.5
		l0,0c0.1-0.9-0.6-1.8-1.5-1.8l-7-0.6c-1.7-0.2-3.3,1.1-3.4,2.9l0,0l-0.6,7c-0.1,0.9,0.6,1.8,1.5,1.8l0,0c0.9,0.1,1.8-0.6,1.8-1.5
		l0.3-3.5c7.6,8.2,20.5,8.7,28.7,1.1c3.2-3,5.4-6.9,6.2-11.3c0.2-0.9-0.4-1.8-1.4-2C54.8,36.5,54.8,36.5,54.7,36.5L54.7,36.5z"/>
</g>
</svg>
